<svg width="56" height="65" viewBox="0 0 56 65" fill="none" xmlns="http://www.w3.org/2000/svg">
<path d="M51.3484 63.8828C51.3877 58.0784 48.031 56.9879 43.7436 57.6472C38.7453 58.4171 33.9518 60.4186 29.0585 61.8222C25.3871 62.8743 21.75 64.3883 18.0079 64.7038C11.0429 65.2966 4.56571 62.1224 1.90141 54.1832C1.16976 52.0021 0.878687 49.6772 0.351593 47.2549C2.44947 48.6534 4.10417 50.2238 6.08929 50.986C9.28075 52.2151 12.7395 51.8841 15.8838 50.7293C20.1923 49.1384 24.4091 47.2651 28.5418 45.2689C33.1519 43.0441 37.5732 40.4678 42.9647 40.4678C50.1264 40.4678 55.9874 45.5716 55.455 53.6752C55.2113 57.4066 53.6622 61.0505 51.3484 63.8828ZM28.3321 52.8874C35.2367 50.3752 41.9158 46.752 50.0529 49.9211C45.4823 44.8045 34.6676 46.6263 28.3321 52.8874Z" fill="#DD2C74"/>
<path d="M6.05536 17.8494C8.30773 16.5243 10.2635 15.6468 11.8844 14.3523C14.1317 12.5617 16.1794 10.5022 18.1915 8.44031C18.644 7.97726 18.7258 7.03072 18.7565 6.29651C18.8307 4.4111 18.7821 2.52057 18.7821 0.356323C19.549 0.612146 20.0962 0.645409 20.3876 0.934478C24.3734 4.8946 28.7195 8.58868 32.2298 12.9402C37.8544 19.9037 37.8978 28.7066 33.2371 35.6495C33.2371 33.8435 33.278 31.779 33.2371 29.7195C33.2038 28.5045 32.8256 27.5605 31.2354 28.3791C30.3559 25.3426 30.4094 21.8582 26.907 19.937C26.7025 20.84 26.5542 21.4872 26.3624 22.3289C21.8015 19.1055 16.8085 18.6092 11.6237 19.2105L11.3501 19.9293C12.3395 20.4204 13.2906 21.0294 14.3284 21.3721C16.1948 21.9835 18.1634 22.3161 20.0042 22.9812C23.1871 24.1273 25.2862 26.4271 25.5724 29.8168C25.8486 33.1092 25.7463 36.4476 25.6056 39.7581C25.534 41.4312 24.6392 42.6898 22.9698 43.5263C18.823 45.6088 14.5535 47.1974 9.88519 47.3919C8.61512 47.4232 7.34915 47.2363 6.14228 46.8392C2.10031 45.5602 1.36913 41.0858 4.86398 37.6552C7.72227 34.8411 10.9998 32.4569 14.0192 29.804C15.3332 28.6503 16.6627 27.4249 17.6368 25.9974C19.0506 23.9303 18.5749 23.3343 16.1334 22.8609C13.9476 22.4389 11.726 21.8992 9.70876 20.9936C8.39977 20.4102 7.43081 19.0748 6.05536 17.8494ZM19.5439 15.2912C18.5366 14.6184 18.0407 14.0121 17.6061 14.0582C16.9413 14.1196 16.315 14.6261 15.6733 14.9459C16.0951 15.3244 16.494 15.9692 16.9515 16.0178C17.5908 16.0714 18.2759 15.675 19.5439 15.2886V15.2912Z" fill="#DD2C74"/>
</svg>
